<svg width="45" height="46" viewBox="0 0 45 46" fill="none" xmlns="http://www.w3.org/2000/svg">
<path fill-rule="evenodd" clip-rule="evenodd" d="M40.178 45.57C39.1105 45.57 38.1943 45.1807 37.4561 44.4147L26.8293 33.4505L25.3666 34.2408C22.9508 35.5451 20.2981 36.2071 17.4837 36.2071C7.84359 36.2071 0 28.0874 0 18.1088C0 13.2471 1.82428 8.68814 5.13663 5.27065C8.4305 1.87165 12.815 0 17.4837 0C22.1525 0 26.5277 1.87165 29.8147 5.26834C33.1189 8.68468 34.9397 13.2448 34.9397 18.1076C34.9397 21.0422 34.272 23.9051 33.0069 26.3879L32.2917 27.7917L42.8804 38.6183C44.4355 40.2046 44.4447 42.8434 42.9 44.3812L42.8723 44.4089L42.8457 44.4378C41.9272 45.4221 40.78 45.5689 40.178 45.5689L40.178 45.57ZM17.1337 4.32328C10.0653 4.32328 4.31519 10.2271 4.31519 17.4837C4.31519 24.7404 10.0653 30.6453 17.1337 30.6453C24.202 30.6453 29.9221 24.7404 29.9221 17.4837C29.9221 10.2271 24.1847 4.32328 17.1337 4.32328Z" fill="white"/>
</svg>
