<?xml version="1.0" encoding="UTF-8"?>
<svg id="Capa_2" data-name="Capa 2" xmlns="http://www.w3.org/2000/svg" viewBox="0 0 37.29 29.61">
  <defs>
    <style>
      .cls-1 {
        fill: #fff;
        stroke-width: 0px;
      }
    </style>
  </defs>
  <g id="ELEMENTS">
    <path class="cls-1" d="m31.31,0H5.97C2.68,0,0,2.68,0,5.97v14.81c0,4.87,3.96,8.83,8.83,8.83h19.63c4.87,0,8.83-3.96,8.83-8.83V5.97c0-3.29-2.68-5.97-5.97-5.97Zm-.99,3.95l-9.73,11.15c-.5.57-1.19.88-1.94.88s-1.45-.31-1.94-.88L6.97,3.95h23.35Zm-1.86,21.7H8.83c-2.69,0-4.88-2.19-4.88-4.87V6.51l9.77,11.2c1.24,1.42,3.04,2.24,4.92,2.24s3.68-.82,4.92-2.24l9.77-11.19v14.27c0,2.69-2.19,4.87-4.88,4.87Z"/>
  </g>
</svg>