<?xml version="1.0" encoding="UTF-8"?>
<svg id="Capa_2" data-name="Capa 2" xmlns="http://www.w3.org/2000/svg" viewBox="0 0 30.47 35.61">
  <defs>
    <style>
      .cls-1 {
        fill: #fff;
        stroke-width: 0px;
      }
    </style>
  </defs>
  <g id="ELEMENTS">
    <path class="cls-1" d="m30.47,14.41c-.29.03-.58.04-.88.04-3.21,0-6.2-1.62-7.95-4.3v14.64c0,5.98-4.84,10.82-10.82,10.82S0,30.77,0,24.79s4.84-10.82,10.82-10.82h0c.23,0,.45.02.67.03v5.33c-.22-.03-.44-.07-.67-.07-3.05,0-5.52,2.47-5.52,5.52s2.47,5.52,5.52,5.52,5.74-2.4,5.74-5.45l.05-24.86h5.1c.48,4.57,4.17,8.15,8.76,8.48v5.93"/>
  </g>
</svg>