<?xml version="1.0" encoding="UTF-8"?>
<svg id="Capa_2" data-name="Capa 2" xmlns="http://www.w3.org/2000/svg" viewBox="0 0 30.18 30.26">
  <defs>
    <style>
      .cls-1, .cls-2 {
        fill: #fff;
        stroke-width: 0px;
      }

      .cls-2 {
        fill-rule: evenodd;
      }
    </style>
  </defs>
  <g id="ELEMENTS">
    <g>
      <path class="cls-1" d="m0,30.26l2.17-8.09c-1.23-2.22-1.87-4.7-1.87-7.22C.29,6.7,7,0,15.24,0s14.95,6.7,14.95,14.95-6.7,14.95-14.95,14.95c-2.47,0-4.92-.62-7.1-1.81L0,30.26Zm8.54-5.21l.51.31c1.88,1.12,4.02,1.71,6.19,1.71,6.68,0,12.12-5.44,12.12-12.12S21.92,2.83,15.24,2.83,3.12,8.26,3.12,14.95c0,2.21.61,4.38,1.77,6.28l.31.52-1.21,4.52,4.54-1.22Z"/>
      <path class="cls-2" d="m20.8,17.02c-.62-.37-1.42-.78-2.14-.48-.56.23-.91,1.1-1.27,1.54-.18.23-.41.26-.69.15-2.09-.83-3.69-2.22-4.84-4.14-.2-.3-.16-.53.07-.81.35-.41.78-.87.88-1.43.09-.55-.16-1.2-.39-1.69-.29-.63-.62-1.52-1.25-1.88-.58-.33-1.34-.14-1.86.28-.89.72-1.32,1.86-1.31,2.98,0,.32.04.64.12.95.18.74.52,1.43.91,2.09.29.5.61.98.95,1.44,1.12,1.52,2.5,2.83,4.11,3.82.8.49,1.67.92,2.56,1.22,1,.33,1.9.68,2.99.47,1.14-.22,2.26-.92,2.71-2.01.13-.32.2-.69.13-1.03-.15-.71-1.11-1.13-1.69-1.47Z"/>
    </g>
  </g>
</svg>